# xmcd CD database file
#
# Track frame offsets:
#	150
#	7035
#	24210
#	44580
#	66430
#	95607
#	113245
#	130562
#	151525
#	170485
#	173572
#	190487
#
# Disc length: 2664 seconds
#
# Revision: 5
# Processed by: cddbd v1.5PL3 Copyright (c) Steve Scherf et al.
# Submitted via: CDex 1.50
#
DISCID=940a660c
DTITLE=The Gospellers - The Gospellers
DYEAR=1995
DGENRE=JPop
TTITLE0=イントロ '95
TTITLE1=Something in my soul
TTITLE2=U'll Be Mine
TTITLE3=Higher
TTITLE4=Promise (album version)
TTITLE5=Betcha By Golly, Wow
TTITLE6=Winter Cheers!
TTITLE7=Tonight
TTITLE8=祈りの街
TTITLE9=インター '95
TTITLE10=Voices
TTITLE11=深呼吸
EXTD=YEAR: 1995
EXTT0=
EXTT1=
EXTT2=
EXTT3=
EXTT4=
EXTT5=
EXTT6=
EXTT7=
EXTT8=
EXTT9=
EXTT10=
EXTT11=
PLAYORDER=
